Coordinates
version=1
nRows=29
nColumns=30
inDegrees=yes

Units are S.I. units (second, meters, Newtons, ...)
Angles are in degrees.

endheader
time	floatyaw	floatroll	floatpitch	floatx	floaty	floatz	pro_sup_l	deviation_l	flexion_l	cmc_flexion_l	cmc_abduction_l	mp_flexion_l	ip_flexion_l	2mcp_flexion_l	2mcp_abduction_l	2pm_flexion_l	2md_flexion_l	3mcp_flexion_l	3mcp_abduction_l	3pm_flexion_l	3md_flexion_l	4mcp_flexion_l	4mcp_abduction_l	4pm_flexion_l	4md_flexion_l	5mcp_flexion_l	5mcp_abduction_l	5pm_flexion_l	5md_flexion_l
0.005000	-160.147433	-5.066637	-73.570646	-0.054088	-0.110165	-0.084283	118.258086	31.598313	-13.771074	4.681696	42.459075	-18.479885	-48.610591	25.902688	11.559278	57.050291	50.500121	40.047504	6.826280	60.363378	49.143686	38.129783	-5.592889	65.229599	59.734106	14.051028	-13.752896	74.282774	67.880861
0.015000	-160.147433	-5.066637	-73.570646	-0.053914	-0.107001	-0.083591	117.088844	31.919332	-13.138686	4.081134	42.652643	-18.123158	-48.606768	26.860123	11.706834	56.291351	50.078107	41.391729	6.850407	59.386618	49.375622	39.564110	-5.609218	64.325817	60.546261	14.823596	-13.825532	74.072402	68.633415
0.025000	-160.147433	-5.066637	-73.570646	-0.053690	-0.103591	-0.082906	116.084672	32.237006	-12.595213	3.765278	42.717070	-17.819658	-48.562960	27.760692	11.809741	55.403181	49.554138	42.607343	6.869541	58.217927	49.435053	40.882022	-5.619343	63.174513	61.216242	15.540595	-13.891805	73.648181	69.204042
0.035000	-160.147433	-5.066637	-73.570646	-0.053478	-0.100215	-0.082275	115.266827	32.566254	-12.071852	3.665611	42.726750	-17.505581	-48.445486	28.664432	11.874855	54.412190	49.002949	43.724655	6.886740	56.869357	49.400399	42.133662	-5.621043	61.745060	61.821504	16.308908	-13.956934	72.923210	69.673534
0.045000	-160.147433	-5.066637	-73.570646	-0.053294	-0.097224	-0.081733	114.637595	32.897530	-11.530357	3.700328	42.739937	-17.140681	-48.244092	29.546954	11.893890	53.389606	48.460751	44.718060	6.902190	55.393332	49.316708	43.290616	-5.612334	60.082874	62.378833	17.149300	-14.014789	71.911704	70.054372
0.055000	-160.147433	-5.066637	-73.570646	-0.053113	-0.094928	-0.081300	114.169088	33.193275	-10.981587	3.784869	42.781834	-16.733885	-47.973726	30.338060	11.864140	52.439525	47.946207	45.539944	6.915474	53.906908	49.210554	44.278815	-5.595320	58.339409	62.866416	17.996004	-14.057326	70.742093	70.325701
0.065000	-160.147433	-5.066637	-73.570646	-0.052889	-0.093480	-0.080993	113.806414	33.398673	-10.470570	3.850355	42.843675	-16.336936	-47.666377	30.964846	11.800651	51.661922	47.477247	46.153589	6.925907	52.558546	49.099534	45.022266	-5.576477	56.721723	63.253325	18.729542	-14.079965	69.603467	70.469067
0.075000	-160.147433	-5.066637	-73.570646	-0.052583	-0.092819	-0.080823	113.485521	33.461956	-10.039054	3.859650	42.895362	-16.014710	-47.358911	31.383395	11.732994	51.116386	47.076158	46.552832	6.932337	51.467260	48.994094	45.480997	-5.563962	55.401259	63.524497	19.230331	-14.082842	68.661405	70.488288
0.085000	-160.147433	-5.066637	-73.570646	-0.052190	-0.092710	-0.080805	113.156064	33.354119	-9.693738	3.812246	42.902807	-15.814043	-47.082234	31.591277	11.691224	50.806081	46.762734	46.763518	6.933437	50.678154	48.895534	45.667680	-5.564006	54.445924	63.689903	19.428190	-14.069719	67.994396	70.408400
0.095000	-160.147433	-5.066637	-73.570646	-0.051731	-0.092844	-0.080945	112.796350	33.078878	-9.401684	3.736185	42.840371	-15.750083	-46.853824	31.621032	11.692393	50.684362	46.542296	46.830335	6.928367	50.158393	48.794848	45.637303	-5.578591	53.814173	63.774690	19.324198	-14.045999	67.581391	70.260541
0.105000	-160.147433	-5.066637	-73.570646	-0.051247	-0.092958	-0.081234	112.412603	32.669697	-9.111698	3.671635	42.694747	-15.813374	-46.674500	31.521480	11.736185	50.674158	46.398819	46.798834	6.917263	49.826919	48.675526	45.459307	-5.605451	53.401800	63.800579	18.977893	-14.016728	67.335719	70.066441
0.115000	-160.147433	-5.066637	-73.570646	-0.050769	-0.092911	-0.081639	112.025204	32.177354	-8.783130	3.652975	42.463652	-15.986011	-46.531140	31.337646	11.809797	50.689962	46.300307	46.702909	6.901251	49.594711	48.521256	45.190768	-5.639905	53.102554	63.774964	18.472870	-13.985229	67.157973	69.833354
0.125000	-160.147433	-5.066637	-73.570646	-0.050317	-0.092693	-0.082109	111.652340	31.654985	-8.403564	3.695815	42.154193	-16.252556	-46.405462	31.099476	11.896321	50.658097	46.214733	46.562766	6.882083	49.395114	48.325868	44.865155	-5.677061	52.847765	63.695597	17.882995	-13.952661	66.979658	69.560080
0.135000	-160.147433	-5.066637	-73.570646	-0.049896	-0.092381	-0.082585	111.301244	31.146551	-7.988736	3.793484	41.781882	-16.600233	-46.284491	30.823799	11.981240	50.533484	46.126292	46.390901	6.861543	49.195892	48.099196	44.498054	-5.713272	52.613758	63.563746	17.255500	-13.918422	66.781954	69.246009
0.145000	-160.147433	-5.066637	-73.570646	-0.049506	-0.092072	-0.083016	110.970009	30.681254	-7.569735	3.923676	41.367784	-17.013143	-46.165914	30.525530	12.055366	50.308695	46.040588	46.199359	6.840929	48.995097	47.863558	44.100388	-5.746513	52.406443	63.392448	16.613467	-13.881106	66.588163	68.895096
0.155000	-160.147433	-5.066637	-73.570646	-0.049152	-0.091830	-0.083373	110.655410	30.273330	-7.177281	4.060647	40.932531	-17.468552	-46.054860	30.227992	12.115006	50.010223	45.975055	46.002882	6.820850	48.807443	47.642085	43.687995	-5.776010	52.239512	63.202995	15.969117	-13.839627	66.438503	68.513621
0.165000	-160.147433	-5.066637	-73.570646	-0.048839	-0.091668	-0.083651	110.359267	29.924941	-6.830905	4.185726	40.489910	-17.939540	-45.955642	29.963094	12.160646	49.682366	45.941596	45.816914	6.801393	48.648876	47.446603	43.282117	-5.801614	52.119276	63.013415	15.335954	-13.794060	66.361788	68.106545
0.175000	-160.147433	-5.066637	-73.570646	-0.048570	-0.091561	-0.083864	110.088740	29.629869	-6.535955	4.291442	40.044269	-18.402411	-45.865962	29.760403	12.195095	49.366874	45.933851	45.652837	6.782461	48.526190	47.273018	42.902332	-5.823358	52.041681	62.828068	14.731859	-13.745932	66.358925	67.677137
0.185000	-160.147433	-5.066637	-73.570646	-0.048342	-0.091471	-0.084036	109.851481	29.376731	-6.286990	4.379613	39.593240	-18.843785	-45.778351	29.633502	12.221808	49.088713	45.927848	45.513992	6.764069	48.435069	47.106542	42.558052	-5.841365	51.998669	62.635627	14.173149	-13.698012	66.405566	67.230075
0.195000	-160.147433	-5.066637	-73.570646	-0.048143	-0.091373	-0.084187	109.650102	29.151756	-6.073865	4.456849	39.133160	-19.262967	-45.687050	29.573953	12.243869	48.853228	45.894919	45.395071	6.746494	48.364846	46.932394	42.244909	-5.856048	51.985750	62.416808	13.666000	-13.653649	66.469059	66.774426
0.205000	-160.147433	-5.066637	-73.570646	-0.047961	-0.091266	-0.084333	109.479811	28.941531	-5.886795	4.530709	38.662924	-19.668779	-45.594546	29.556377	12.263681	48.653057	45.817298	45.285178	6.730176	48.305442	46.744523	41.948354	-5.868342	52.004294	62.156702	13.202286	-13.615627	66.527207	66.322983
0.215000	-160.147433	-5.066637	-73.570646	-0.047785	-0.091164	-0.084481	109.329934	28.735602	-5.718446	4.607792	38.184098	-20.073453	-45.513238	29.550011	12.283071	48.478918	45.696204	45.172771	6.715395	48.252581	46.547163	41.651750	-5.879689	52.058478	61.853666	12.762731	-13.584803	66.577984	65.887845
0.225000	-160.147433	-5.066637	-73.570646	-0.047613	-0.091085	-0.084632	109.187788	28.528218	-5.563573	4.693252	37.698552	-20.486798	-45.461399	29.529575	12.303353	48.327651	45.549045	45.050069	6.701938	48.208949	46.349849	41.344062	-5.891723	52.150378	61.520063	12.325330	-13.559287	66.636432	65.475587
0.235000	-160.147433	-5.066637	-73.570646	-0.047447	-0.091040	-0.084784	109.042910	28.318628	-5.418310	4.790686	37.206400	-20.912289	-45.455144	29.481261	12.325115	48.202903	45.399919	44.915509	6.689054	48.180371	46.161146	41.023971	-5.905759	52.275331	61.176719	11.874714	-13.534929	66.721783	65.085936
0.245000	-160.147433	-5.066637	-73.570646	-0.047292	-0.091029	-0.084931	108.890306	28.110051	-5.280744	4.901847	36.705736	-21.345447	-45.499498	29.403669	12.347929	48.108619	45.270215	44.773935	6.675841	48.168501	45.986158	40.699898	-5.922325	52.418323	60.846344	11.408450	-13.507054	66.842360	64.715204
0.255000	-160.147433	-5.066637	-73.570646	-0.047148	-0.091042	-0.085071	108.731805	27.907892	-5.152408	5.026385	36.193708	-21.774888	-45.582953	29.305284	12.370455	48.040869	45.173240	44.634699	6.661800	48.164889	45.828403	40.386635	-5.940951	52.553999	60.548798	10.937800	-13.472521	66.987262	64.361709
0.265000	-160.147433	-5.066637	-73.570646	-0.047012	-0.091069	-0.085200	108.574879	27.717726	-5.038604	5.161795	35.668095	-22.186177	-45.679495	29.199804	12.391165	47.985335	45.112701	44.508080	6.647187	48.151936	45.692267	40.099487	-5.960352	52.653753	60.297133	10.482383	-13.430956	67.130487	64.028356
0.275000	-160.147433	-5.066637	-73.570646	-0.046878	-0.091103	-0.085317	108.428941	27.543356	-4.945957	5.303530	35.129375	-22.567155	-45.758235	29.100526	12.409256	47.923499	45.083090	44.401109	6.632919	48.111750	45.582128	39.847652	-5.978965	52.698958	60.093260	10.060923	-13.384612	67.245159	63.719940
0.285000	-160.147433	-5.066637	-73.570646	-0.046742	-0.091140	-0.085424	108.300518	27.385393	-4.878112	5.445394	34.583319	-22.911984	-45.796124	29.015946	12.425014	47.843341	45.071343	44.314846	6.620122	48.037378	45.498397	39.630095	-5.995567	52.692644	59.925646	9.683014	-13.337160	67.318265	63.437997
